<svg xmlns="http://www.w3.org/2000/svg" viewBox="0 0 64 64">
  <defs>
    <linearGradient id="g" x1="0%" y1="0%" x2="100%" y2="100%">
      <stop offset="0%" stop-color="#b85c38" />
      <stop offset="100%" stop-color="#355f7a" />
    </linearGradient>
  </defs>
  <rect width="64" height="64" rx="18" fill="url(#g)" />
  <path d="M17 38c0 7 5 11 13 11 6 0 11-3 11-8 0-5-3-8-9-10l-6-1c-4-1-6-3-6-6 0-4 3-6 8-6 5 0 9 2 10 7h8c-1-9-8-13-18-13-10 0-17 5-17 13 0 7 4 11 12 13l6 2c4 1 6 3 6 6 0 4-4 6-9 6-6 0-10-3-11-8h-8Zm34 11h6V35h5l7 14h8l-8-16c4-2 7-6 7-11 0-8-6-13-15-13H51v40Zm6-34h5c5 0 8 2 8 7s-3 7-8 7h-5V15Z" fill="#f7efe3" />
</svg>
